<svg width="56" height="56" viewBox="0 0 56 56" fill="none" xmlns="http://www.w3.org/2000/svg">
<circle cx="28" cy="28" r="26.5" fill="white" stroke="#D7234D" stroke-width="3"/>
<path d="M32.88 28.25C32.88 35.66 42 35.66 42 28.25C42 25.4316 41.1643 22.6765 39.5984 20.3331C38.0326 17.9897 35.8071 16.1633 33.2032 15.0847C30.5994 14.0062 27.7342 13.724 24.97 14.2738C22.2057 14.8237 19.6666 16.1808 17.6737 18.1737C15.6808 20.1666 14.3237 22.7057 13.7738 25.47C13.224 28.2342 13.5062 31.0994 14.5847 33.7032C15.6633 36.3071 17.4897 38.5326 19.8331 40.0984C22.1765 41.6643 24.9316 42.5 27.75 42.5C32.88 42.5 35.16 40.22 35.16 40.22" stroke="#D7234D" stroke-width="2.5" stroke-linecap="round" stroke-linejoin="round"/>
<path d="M27.7501 33.3801C30.5833 33.3801 32.8801 31.0833 32.8801 28.2501C32.8801 25.4169 30.5833 23.1201 27.7501 23.1201C24.9168 23.1201 22.6201 25.4169 22.6201 28.2501C22.6201 31.0833 24.9168 33.3801 27.7501 33.3801Z" stroke="#D7234D" stroke-width="2.5" stroke-linecap="round" stroke-linejoin="round"/>
</svg>
